<svg width="128" height="128" viewBox="0 0 128 128" fill="none" xmlns="http://www.w3.org/2000/svg">
  <!-- Green background circle -->
  <circle cx="64" cy="64" r="64" fill="#4CAF50"/>
  
  <!-- Yellow folder back -->
  <path d="M24 48 L24 98 C24 102 25 106 28 106 L100 106 C103 106 104 102 104 98 L104 48 Z" fill="#E89D3F"/>
  
  <!-- Yellow folder tab -->
  <path d="M24 48 L24 38 C24 34 25 30 28 30 L48 30 L54 36 L100 36 C103 36 104 38 104 42 L104 48 Z" fill="#F5B456"/>
  
  <!-- White divider lines -->
  <line x1="40" y1="52" x2="40" y2="102" stroke="white" stroke-width="2" opacity="0.4"/>
  <line x1="64" y1="52" x2="64" y2="102" stroke="white" stroke-width="2" opacity="0.4"/>
  <line x1="88" y1="52" x2="88" y2="102" stroke="white" stroke-width="2" opacity="0.4"/>
  
  <!-- White checkmark circle -->
  <circle cx="92" cy="38" r="14" fill="white"/>
  
  <!-- Green checkmark -->
  <path d="M86 38 L90 42 L98 34" stroke="#4CAF50" stroke-width="3" stroke-linecap="round" stroke-linejoin="round"/>
</svg>
